<?xml version="1.0" standalone="no"?>
<!DOCTYPE svg PUBLIC "-//W3C//DTD SVG 20010904//EN"
 "http://www.w3.org/TR/2001/REC-SVG-20010904/DTD/svg10.dtd">
<svg version="1.0" xmlns="http://www.w3.org/2000/svg"
 width="945.000000pt" height="945.000000pt" viewBox="0 0 945.000000 945.000000"
 preserveAspectRatio="xMidYMid meet">
<metadata>
Created by potrace 1.16, written by Peter Selinger 2001-2019
</metadata>
<g transform="translate(0.000000,945.000000) scale(0.100000,-0.100000)"
fill="#000000" stroke="none">
<path d="M1100 7475 l0 -875 875 0 875 0 0 875 0 875 -875 0 -875 0 0 -875z
m1500 0 l0 -625 -625 0 -625 0 0 625 0 625 625 0 625 0 0 -625z"/>
<path d="M1600 7475 l0 -375 375 0 375 0 0 375 0 375 -375 0 -375 0 0 -375z"/>
<path d="M3600 8100 l0 -250 125 0 125 0 0 250 0 250 -125 0 -125 0 0 -250z"/>
<path d="M4100 8225 l0 -125 125 0 125 0 0 -125 0 -125 -125 0 -125 0 0 -250
0 -250 125 0 125 0 0 125 0 125 125 0 125 0 0 -125 0 -125 125 0 125 0 0 125
0 125 250 0 250 0 0 -125 0 -125 -125 0 -125 0 0 -125 0 -125 -125 0 -125 0 0
-125 0 -125 -125 0 -125 0 0 -250 0 -250 375 0 375 0 0 -125 0 -125 -125 0
-125 0 0 -125 0 -125 -125 0 -125 0 0 125 0 125 -375 0 -375 0 0 250 0 250
125 0 125 0 0 250 0 250 -250 0 -250 0 0 -125 0 -125 -125 0 -125 0 0 250 0
250 125 0 125 0 0 125 0 125 -375 0 -375 0 0 -125 0 -125 125 0 125 0 0 -125
0 -125 -125 0 -125 0 0 -250 0 -250 125 0 125 0 0 -125 0 -125 -375 0 -375 0
0 -125 0 -125 -125 0 -125 0 0 125 0 125 -625 0 -625 0 0 -375 0 -375 125 0
125 0 0 250 0 250 375 0 375 0 0 -250 0 -250 -125 0 -125 0 0 -125 0 -125
-250 0 -250 0 0 -125 0 -125 -125 0 -125 0 0 -125 0 -125 125 0 125 0 0 -250
0 -250 125 0 125 0 0 -125 0 -125 -250 0 -250 0 0 -500 0 -500 125 0 125 0 0
375 0 375 125 0 125 0 0 125 0 125 250 0 250 0 0 -125 0 -125 125 0 125 0 0
125 0 125 250 0 250 0 0 -125 0 -125 -125 0 -125 0 0 -125 0 -125 125 0 125 0
0 125 0 125 125 0 125 0 0 -125 0 -125 250 0 250 0 0 -125 0 -125 -125 0 -125
0 0 -125 0 -125 -125 0 -125 0 0 -250 0 -250 125 0 125 0 0 -125 0 -125 -125
0 -125 0 0 -625 0 -625 375 0 375 0 0 500 0 500 125 0 125 0 0 -125 0 -125
125 0 125 0 0 -125 0 -125 -125 0 -125 0 0 -250 0 -250 125 0 125 0 0 125 0
125 125 0 125 0 0 -125 0 -125 125 0 125 0 0 125 0 125 250 0 250 0 0 -125 0
-125 125 0 125 0 0 125 0 125 -125 0 -125 0 0 125 0 125 125 0 125 0 0 125 0
125 125 0 125 0 0 -125 0 -125 125 0 125 0 0 -125 0 -125 125 0 125 0 0 -125
0 -125 750 0 750 0 0 125 0 125 125 0 125 0 0 250 0 250 125 0 125 0 0 125 0
125 -250 0 -250 0 0 125 0 125 125 0 125 0 0 125 0 125 -125 0 -125 0 0 125 0
125 250 0 250 0 0 250 0 250 -125 0 -125 0 0 125 0 125 -125 0 -125 0 0 375 0
375 125 0 125 0 0 125 0 125 -125 0 -125 0 0 375 0 375 125 0 125 0 0 125 0
125 -125 0 -125 0 0 -125 0 -125 -250 0 -250 0 0 -125 0 -125 -375 0 -375 0 0
250 0 250 125 0 125 0 0 -125 0 -125 125 0 125 0 0 125 0 125 125 0 125 0 0
250 0 250 125 0 125 0 0 125 0 125 -125 0 -125 0 0 -125 0 -125 -125 0 -125 0
0 125 0 125 -125 0 -125 0 0 -125 0 -125 -125 0 -125 0 0 125 0 125 -125 0
-125 0 0 -125 0 -125 -250 0 -250 0 0 -125 0 -125 -250 0 -250 0 0 125 0 125
125 0 125 0 0 125 0 125 -125 0 -125 0 0 375 0 375 125 0 125 0 0 -250 0 -250
125 0 125 0 0 250 0 250 125 0 125 0 0 -250 0 -250 125 0 125 0 0 250 0 250
-125 0 -125 0 0 250 0 250 125 0 125 0 0 375 0 375 -375 0 -375 0 0 -125 0
-125 250 0 250 0 0 -125 0 -125 -250 0 -250 0 0 -125 0 -125 -125 0 -125 0 0
125 0 125 -125 0 -125 0 0 250 0 250 -125 0 -125 0 0 -125 0 -125 -125 0 -125
0 0 125 0 125 -250 0 -250 0 0 -125z m750 -500 l0 -125 -125 0 -125 0 0 125 0
125 125 0 125 0 0 -125z m1000 -250 l0 -125 -125 0 -125 0 0 125 0 125 125 0
125 0 0 -125z m-2250 -750 l0 -125 -125 0 -125 0 0 125 0 125 125 0 125 0 0
-125z m500 0 l0 -125 -125 0 -125 0 0 125 0 125 125 0 125 0 0 -125z m1000 0
l0 -125 -125 0 -125 0 0 125 0 125 125 0 125 0 0 -125z m-1250 -500 l0 -125
125 0 125 0 0 -125 0 -125 125 0 125 0 0 -125 0 -125 -125 0 -125 0 0 -250 0
-250 125 0 125 0 0 125 0 125 125 0 125 0 0 125 0 125 125 0 125 0 0 -125 0
-125 -125 0 -125 0 0 -125 0 -125 250 0 250 0 0 -125 0 -125 125 0 125 0 0
125 0 125 125 0 125 0 0 125 0 125 -125 0 -125 0 0 125 0 125 -125 0 -125 0 0
125 0 125 125 0 125 0 0 -125 0 -125 250 0 250 0 0 125 0 125 375 0 375 0 0
-125 0 -125 -125 0 -125 0 0 -250 0 -250 -125 0 -125 0 0 125 0 125 -125 0
-125 0 0 -250 0 -250 125 0 125 0 0 -375 0 -375 -125 0 -125 0 0 250 0 250
-125 0 -125 0 0 -125 0 -125 -125 0 -125 0 0 -125 0 -125 -125 0 -125 0 0
-125 0 -125 125 0 125 0 0 -125 0 -125 125 0 125 0 0 125 0 125 250 0 250 0 0
-125 0 -125 375 0 375 0 0 125 0 125 125 0 125 0 0 -125 0 -125 375 0 375 0 0
-125 0 -125 -125 0 -125 0 0 -125 0 -125 -125 0 -125 0 0 125 0 125 -625 0
-625 0 0 -125 0 -125 -250 0 -250 0 0 125 0 125 -125 0 -125 0 0 -250 0 -250
125 0 125 0 0 -250 0 -250 250 0 250 0 0 -125 0 -125 -250 0 -250 0 0 125 0
125 -125 0 -125 0 0 -125 0 -125 -125 0 -125 0 0 -125 0 -125 -125 0 -125 0 0
125 0 125 -375 0 -375 0 0 250 0 250 125 0 125 0 0 125 0 125 -250 0 -250 0 0
-125 0 -125 -250 0 -250 0 0 250 0 250 125 0 125 0 0 125 0 125 125 0 125 0 0
375 0 375 125 0 125 0 0 250 0 250 125 0 125 0 0 125 0 125 -250 0 -250 0 0
-125 0 -125 -125 0 -125 0 0 -375 0 -375 -250 0 -250 0 0 125 0 125 -125 0
-125 0 0 125 0 125 -250 0 -250 0 0 -125 0 -125 -125 0 -125 0 0 125 0 125
-125 0 -125 0 0 125 0 125 -125 0 -125 0 0 125 0 125 250 0 250 0 0 125 0 125
-125 0 -125 0 0 125 0 125 125 0 125 0 0 125 0 125 125 0 125 0 0 125 0 125
125 0 125 0 0 125 0 125 125 0 125 0 0 -125 0 -125 -125 0 -125 0 0 -125 0
-125 125 0 125 0 0 -125 0 -125 125 0 125 0 0 -250 0 -250 125 0 125 0 0 125
0 125 250 0 250 0 0 125 0 125 -250 0 -250 0 0 375 0 375 125 0 125 0 0 125 0
125 125 0 125 0 0 -125z m3750 -1375 l0 -250 125 0 125 0 0 -125 0 -125 -125
0 -125 0 0 -125 0 -125 -250 0 -250 0 0 125 0 125 125 0 125 0 0 375 0 375
125 0 125 0 0 -250z m-1000 -125 l0 -125 -125 0 -125 0 0 125 0 125 125 0 125
0 0 -125z m500 0 l0 -125 -125 0 -125 0 0 125 0 125 125 0 125 0 0 -125z
m-250 -500 l0 -125 -250 0 -250 0 0 125 0 125 250 0 250 0 0 -125z m250 -1500
l0 -375 -375 0 -375 0 0 375 0 375 375 0 375 0 0 -375z m750 -250 l0 -125
-125 0 -125 0 0 -125 0 -125 -125 0 -125 0 0 -125 0 -125 -375 0 -375 0 0
-125 0 -125 125 0 125 0 0 -125 0 -125 -125 0 -125 0 0 125 0 125 -125 0 -125
0 0 250 0 250 500 0 500 0 0 125 0 125 125 0 125 0 0 125 0 125 125 0 125 0 0
-125z m-4000 -250 l0 -125 -250 0 -250 0 0 125 0 125 250 0 250 0 0 -125z
m4000 -625 l0 -250 -125 0 -125 0 0 250 0 250 125 0 125 0 0 -250z m-3000
-125 l0 -125 -125 0 -125 0 0 125 0 125 125 0 125 0 0 -125z m2500 0 l0 -125
-125 0 -125 0 0 125 0 125 125 0 125 0 0 -125z"/>
<path d="M3600 5850 l0 -250 125 0 125 0 0 250 0 250 -125 0 -125 0 0 -250z"/>
<path d="M2350 5225 l0 -125 250 0 250 0 0 125 0 125 -250 0 -250 0 0 -125z"/>
<path d="M2600 4725 l0 -125 125 0 125 0 0 -125 0 -125 125 0 125 0 0 -125 0
-125 125 0 125 0 0 125 0 125 -125 0 -125 0 0 125 0 125 -125 0 -125 0 0 125
0 125 -125 0 -125 0 0 -125z"/>
<path d="M4850 4725 l0 -125 -125 0 -125 0 0 -125 0 -125 250 0 250 0 0 250 0
250 -125 0 -125 0 0 -125z"/>
<path d="M4100 3975 l0 -125 125 0 125 0 0 -125 0 -125 -125 0 -125 0 0 -250
0 -250 125 0 125 0 0 125 0 125 125 0 125 0 0 -125 0 -125 125 0 125 0 0 125
0 125 -125 0 -125 0 0 125 0 125 250 0 250 0 0 -125 0 -125 125 0 125 0 0 125
0 125 -125 0 -125 0 0 125 0 125 -125 0 -125 0 0 125 0 125 -375 0 -375 0 0
-125z"/>
<path d="M5850 3475 l0 -125 125 0 125 0 0 125 0 125 -125 0 -125 0 0 -125z"/>
<path d="M3600 2975 l0 -125 125 0 125 0 0 125 0 125 -125 0 -125 0 0 -125z"/>
<path d="M4850 2725 l0 -125 -125 0 -125 0 0 -125 0 -125 125 0 125 0 0 -125
0 -125 125 0 125 0 0 125 0 125 125 0 125 0 0 250 0 250 -250 0 -250 0 0 -125z"/>
<path d="M6600 2725 l0 -125 125 0 125 0 0 125 0 125 -125 0 -125 0 0 -125z"/>
<path d="M6600 7475 l0 -875 875 0 875 0 0 875 0 875 -875 0 -875 0 0 -875z
m1500 0 l0 -625 -625 0 -625 0 0 625 0 625 625 0 625 0 0 -625z"/>
<path d="M7100 7475 l0 -375 375 0 375 0 0 375 0 375 -375 0 -375 0 0 -375z"/>
<path d="M3100 7975 l0 -125 125 0 125 0 0 125 0 125 -125 0 -125 0 0 -125z"/>
<path d="M7850 6225 l0 -125 125 0 125 0 0 -125 0 -125 125 0 125 0 0 125 0
125 -125 0 -125 0 0 125 0 125 -125 0 -125 0 0 -125z"/>
<path d="M8100 4975 l0 -125 125 0 125 0 0 125 0 125 -125 0 -125 0 0 -125z"/>
<path d="M8100 3975 l0 -125 125 0 125 0 0 125 0 125 -125 0 -125 0 0 -125z"/>
<path d="M1600 3475 l0 -125 125 0 125 0 0 125 0 125 -125 0 -125 0 0 -125z"/>
<path d="M2600 3225 l0 -125 125 0 125 0 0 125 0 125 -125 0 -125 0 0 -125z"/>
<path d="M1100 1975 l0 -875 875 0 875 0 0 875 0 875 -875 0 -875 0 0 -875z
m1500 0 l0 -625 -625 0 -625 0 0 625 0 625 625 0 625 0 0 -625z"/>
<path d="M1600 1975 l0 -375 375 0 375 0 0 375 0 375 -375 0 -375 0 0 -375z"/>
</g>
</svg>
